*******************************************************************************
              Horrid Henry.2011.DVDRip.Xvid.AC3-SiNiSTER
*******************************************************************************

-------------------------------------------------------------------------------
                              General Information
-------------------------------------------------------------------------------
 
http://www.pix2links.com/image/32GnV.jpg


Format                           : AVI
Format/Info                      : Audio Video Interleave
File size                        : 1.37 GiB
Duration                         : 1h 29mn
Overall bit rate                 : 2 206 Kbps

Video
ID                               : 0
Format                           : MPEG-4 Visual
Format profile                   : Advanced Simple@L5
Format settings, BVOP            : Yes
Format settings, QPel            : No
Format settings, GMC             : No warppoints
Format settings, Matrix          : Default (H.263)
Muxing mode                      : Packed bitstream
Codec ID                         : XVID
Codec ID/Hint                    : XviD
Duration                         : 1h 29mn
Bit rate                         : 1 750 Kbps
Width                            : 720 pixels
Height                           : 384 pixels
Display aspect ratio             : 1.875
Frame rate                       : 25.000 fps
Color space                      : YUV
Chroma subsampling               : 4:2:0
Bit depth                        : 8 bits
Scan type                        : Progressive
Bits/(Pixel*Frame)               : 0.253
Stream size                      : 1.09 GiB (79%)
Writing library                  : XviD 1.2.1 (UTC 2008-12-04)

Audio
ID                               : 1
Format                           : AC-3
Format/Info                      : Audio Coding 3
Mode extension                   : CM (complete main)
Codec ID                         : 2000
Duration                         : 1h 29mn
Bit rate mode                    : Constant
Bit rate                         : 448 Kbps
Channel(s)                       : 6 channels
Channel positions                : Front: L C R, Side: L R, LFE
Sampling rate                    : 48.0 KHz
Bit depth                        : 16 bits
Stream size                      : 285 MiB (20%)
Alignment                        : Aligned on interleaves
Interleave, duration             : 64 ms (1.60 video frames)
Interleave, preload duration     : 192 ms



Video Source: HORRID HENRY 2011 PAL DVDR Legend-Rg.....thanks	
Audio Source: HORRID HENRY 2011 PAL DVDR Legend-Rg.....thanks


Greets:
DarkScene,HDScene,Noir,CrEwSaDe,blackjesus,ViSiON,HDLiTE,BTVRG,Twentyforty,UnKnOwN,
FLAWL3SS,Rx,Relizlab,MiSTERE,ILLUMiNATI,SAFCuk009,HiVE-CM8..... and everybody else we 
respect.. u know who u are
  
-------------------------------------------------------------------------------
                               Post Information
-------------------------------------------------------------------------------
Encoded by...........: SiNiSTER
 
Have sumthing to offer..looking for suppliers... cammers,cams,screeners, audio
supplier.. and any pre retail DVD/BR any RC...if u can provide any email us at
sinister@hushmail.me
-------------------------------------------------------------------------------
                                 Release Notes
-------------------------------------------------------------------------------

source was very nice.. made a script to crop, resize, denoise, lower saturation 
a lil bit because it was over done on colors and sharpen... then just remuxed the 
AC3 audio to my encode.....enjoy


-------------------------------------------------------------------------------
                                 ScreenShots
-------------------------------------------------------------------------------
 
http://www.pix2links.com/image/7I8U4.png 
http://www.pix2links.com/image/osvR6.png 
http://www.pix2links.com/image/PV7GB.png 
http://www.pix2links.com/image/934JK.png 
http://www.pix2links.com/image/xPBAV.jpg



-------------------------------------------------------------------------------

[img]http://leetleech.org/images/33506450373550172140.gif[/img]


-------------------------------------------------------------------------------
Generated with Cool NFO Creator - http://fly.to/coolbeans
-------------------------------------------------------------------------------
